# Blender v2.79 (sub 0) OBJ File: 'ship.blend'
# www.blender.org
mtllib ship.mtl
o Cube
v -0.415941 -0.404233 0.415897
v -0.415897 -0.404233 -0.415941
v 0.415941 -0.404233 -0.415897
v -0.415942 0.365860 0.415897
v -0.415897 0.365860 -0.415942
v 0.415942 0.365860 -0.415897
v -0.187818 0.187841 -0.422352
v -0.187807 0.187841 -0.631706
v -0.220855 0.147585 -0.422354
v -0.220844 0.147585 -0.631708
v -0.245403 0.101659 -0.422356
v -0.245392 0.101659 -0.631709
v -0.260520 0.051825 -0.422356
v -0.260509 0.051825 -0.631710
v -0.265624 -0.000000 -0.422357
v -0.265613 -0.000000 -0.631710
v -0.260520 -0.051825 -0.422356
v -0.260509 -0.051825 -0.631710
v -0.245403 -0.101659 -0.422356
v -0.245392 -0.101659 -0.631709
v -0.220855 -0.147586 -0.422354
v -0.220844 -0.147586 -0.631708
v -0.187818 -0.187841 -0.422352
v -0.187807 -0.187841 -0.631706
v -0.147563 -0.220877 -0.422350
v -0.147552 -0.220877 -0.631704
v -0.101636 -0.245426 -0.422348
v -0.101625 -0.245426 -0.631702
v -0.051803 -0.260543 -0.422345
v -0.051791 -0.260543 -0.631699
v 0.051848 -0.260543 -0.422340
v 0.051859 -0.260543 -0.631693
v 0.101681 -0.245426 -0.422337
v 0.101692 -0.245426 -0.631691
v 0.147608 -0.220877 -0.422335
v 0.147619 -0.220877 -0.631688
v 0.187863 -0.187841 -0.422332
v 0.187874 -0.187841 -0.631686
v 0.220900 -0.147585 -0.422331
v -1.877166 0.359951 1.458124
v -1.877111 0.359951 0.412225
v -1.792413 0.359951 0.412230
v -1.792468 0.359951 1.458129
v -1.877166 0.438362 1.458124
v -1.877111 0.438362 0.412225
v -1.792413 0.438362 0.412230
v -1.792468 0.438362 1.458128
v -1.908412 0.331029 1.548948
v -1.908407 0.331029 1.459454
v -1.761227 0.331029 1.459462
v -1.761232 0.331029 1.548955
v -1.908412 0.467284 1.548948
v -1.908407 0.467284 1.459454
v -1.761227 0.467284 1.459462
v -1.761232 0.467284 1.548955
v -2.100224 0.437388 0.415807
v -2.100180 0.437388 -0.416031
v -1.390093 0.004109 -0.415993
v -1.390137 0.004109 0.415845
v -1.940423 0.699282 0.415816
v -1.940378 0.699282 -0.416023
v -1.230291 0.266003 -0.415985
v -1.230335 0.266003 0.415854
v -1.338578 -0.077317 0.415848
v -1.338533 -0.077317 -0.415991
v -0.551097 -0.345458 -0.415949
v -0.551142 -0.345458 0.415890
v -1.207680 0.307085 0.415855
v -1.207635 0.307085 -0.415984
v -0.420199 0.038944 -0.415941
v -0.420244 0.038944 0.415897
v -0.132404 -0.138602 3.060063
v -0.132395 -0.138602 2.899245
v 0.132078 -0.138602 3.060078
v -0.132404 0.106247 3.060063
v -0.132395 0.106247 2.899245
v 0.132086 0.106247 2.899259
v -0.076256 -0.086630 2.896854
v -0.076155 -0.086630 1.017379
v -0.076256 0.054275 2.896853
v -0.076155 0.054275 1.017379
v -0.301592 -0.295333 1.014325
v -0.301560 -0.295333 0.411248
v -0.301593 0.262978 1.014325
v -0.301560 0.262978 0.411248
v 0.301517 0.262978 0.411280
v 0.415897 -0.404233 0.415941
v 0.415897 0.365860 0.415941
v 0.000023 0.265647 -0.422342
v 0.000034 0.265647 -0.631696
v 0.051848 0.260542 -0.422340
v 0.051859 0.260542 -0.631693
v 0.101681 0.245426 -0.422337
v 0.101692 0.245426 -0.631691
v 0.147608 0.220877 -0.422335
v 0.147619 0.220877 -0.631688
v 0.187863 0.187841 -0.422332
v 0.187874 0.187841 -0.631686
v 0.220900 0.147585 -0.422331
v 0.220911 0.147585 -0.631684
v 0.245448 0.101659 -0.422329
v 0.245459 0.101659 -0.631683
v 0.260565 0.051825 -0.422329
v 0.260576 0.051825 -0.631682
v 0.265669 -0.000000 -0.422328
v 0.265680 -0.000000 -0.631682
v 0.260565 -0.051825 -0.422329
v 0.260576 -0.051825 -0.631682
v 0.245448 -0.101659 -0.422329
v 0.245459 -0.101659 -0.631683
v 0.220911 -0.147586 -0.631684
v 0.000023 -0.265647 -0.422342
v 0.000034 -0.265647 -0.631696
v -0.147563 0.220877 -0.422350
v -0.147552 0.220877 -0.631704
v -0.101636 0.245426 -0.422348
v -0.101625 0.245426 -0.631702
v -0.051802 0.260542 -0.422345
v -0.051791 0.260542 -0.631699
v 1.877011 0.359951 1.458324
v 1.877067 0.359951 0.412425
v 1.792369 0.359951 0.412421
v 1.792313 0.359951 1.458320
v 1.877011 0.438362 1.458324
v 1.877067 0.438362 0.412425
v 1.792369 0.438362 0.412421
v 1.792313 0.438362 1.458320
v 1.908247 0.331029 1.549151
v 1.908252 0.331029 1.459658
v 1.761072 0.331029 1.459650
v 1.761067 0.331029 1.549143
v 1.908247 0.467284 1.549151
v 1.908252 0.467284 1.459658
v 1.761072 0.467284 1.459650
v 1.761067 0.467284 1.549143
v 2.100180 0.437388 0.416031
v 2.100224 0.437388 -0.415807
v 1.390137 0.004109 -0.415845
v 1.390093 0.004109 0.415993
v 1.940378 0.699282 0.416022
v 1.940422 0.699282 -0.415816
v 1.230335 0.266003 -0.415853
v 1.230291 0.266003 0.415985
v 1.338533 -0.077317 0.415991
v 1.338578 -0.077317 -0.415848
v 0.551142 -0.345458 -0.415890
v 0.551098 -0.345458 0.415949
v 1.207635 0.307085 0.415983
v 1.207679 0.307085 -0.415855
v 0.420243 0.038944 -0.415897
v 0.420199 0.038944 0.415942
v 0.132086 -0.138602 2.899259
v 0.132078 0.106247 3.060077
v 0.075947 -0.086630 2.896862
v 0.076047 -0.086630 1.017387
v 0.075947 0.054275 2.896861
v 0.076047 0.054275 1.017387
v 0.301484 -0.295333 1.014357
v 0.301516 -0.295333 0.411280
v 0.301484 0.262978 1.014357
vn 0.0000 -1.0000 -0.0000
vn 0.0000 1.0000 -0.0000
vn -1.0000 0.0000 -0.0001
vn 0.0001 -0.0000 -1.0000
vn 1.0000 -0.0000 0.0001
vn -0.0001 0.0000 1.0000
vn -0.6344 0.7730 -0.0000
vn -0.7730 0.6344 -0.0000
vn -0.8819 0.4714 -0.0000
vn -0.9569 0.2903 -0.0001
vn -0.9952 0.0980 -0.0001
vn -0.9952 -0.0980 -0.0001
vn -0.9569 -0.2903 -0.0001
vn -0.8819 -0.4714 -0.0000
vn -0.7730 -0.6344 -0.0000
vn -0.6344 -0.7730 -0.0000
vn -0.4714 -0.8819 -0.0000
vn -0.2903 -0.9569 -0.0000
vn -0.0980 -0.9952 -0.0000
vn 0.0980 -0.9952 0.0000
vn 0.2903 -0.9569 0.0000
vn 0.4714 -0.8819 0.0000
vn 0.6344 -0.7730 0.0000
vn 0.7730 -0.6344 0.0000
vn 0.8819 -0.4714 0.0000
vn -0.5209 -0.8536 -0.0000
vn 0.5209 0.8536 0.0000
vn -0.8536 0.5209 -0.0000
vn 0.8536 -0.5209 0.0000
vn -0.3223 -0.9466 -0.0000
vn 0.3223 0.9466 0.0000
vn -0.9466 0.3223 -0.0001
vn 0.9466 -0.3223 0.0001
vn 0.0980 0.9952 0.0000
vn 0.2903 0.9569 0.0000
vn 0.4714 0.8819 0.0000
vn 0.6344 0.7730 0.0000
vn 0.7730 0.6344 0.0000
vn 0.8819 0.4714 0.0000
vn 0.9569 0.2903 0.0001
vn 0.9952 0.0980 0.0001
vn 0.9952 -0.0980 0.0001
vn 0.9569 -0.2903 0.0001
vn -0.4714 0.8819 -0.0000
vn -0.2903 0.9569 -0.0000
vn -0.0980 0.9952 -0.0000
vn 0.0000 -0.0000 -1.0000
vn 0.5209 -0.8536 0.0000
vn -0.5209 0.8536 -0.0000
vn 0.8536 0.5209 0.0000
vn -0.8536 -0.5209 -0.0000
vn 0.3223 -0.9466 0.0000
vn -0.3223 0.9466 -0.0000
vn 0.9466 0.3223 0.0001
vn -0.9466 -0.3223 -0.0001
usemtl Material
s off
f 1//1 2//1 3//1 87//1
f 4//2 88//2 6//2 5//2
f 1//3 4//3 5//3 2//3
f 2//4 5//4 6//4 3//4
f 3//5 6//5 88//5 87//5
f 4//6 1//6 87//6 88//6
f 114//7 115//7 8//7 7//7
f 7//8 8//8 10//8 9//8
f 9//9 10//9 12//9 11//9
f 11//10 12//10 14//10 13//10
f 13//11 14//11 16//11 15//11
f 15//12 16//12 18//12 17//12
f 17//13 18//13 20//13 19//13
f 19//14 20//14 22//14 21//14
f 21//15 22//15 24//15 23//15
f 23//16 24//16 26//16 25//16
f 25//17 26//17 28//17 27//17
f 27//18 28//18 30//18 29//18
f 29//19 30//19 113//19 112//19
f 112//20 113//20 32//20 31//20
f 31//21 32//21 34//21 33//21
f 33//22 34//22 36//22 35//22
f 35//23 36//23 38//23 37//23
f 37//24 38//24 111//24 39//24
f 39//25 111//25 110//25 109//25
f 119//4 90//4 92//4 94//4 96//4 98//4 100//4 102//4 104//4 106//4 108//4 110//4 111//4 38//4 36//4 34//4 32//4 113//4 30//4 28//4 26//4 24//4 22//4 20//4 18//4 16//4 14//4 12//4 10//4 8//4 115//4 117//4
f 89//6 118//6 116//6 114//6 7//6 9//6 11//6 13//6 15//6 17//6 19//6 21//6 23//6 25//6 27//6 29//6 112//6 31//6 33//6 35//6 37//6 39//6 109//6 107//6 105//6 103//6 101//6 99//6 97//6 95//6 93//6 91//6
f 40//1 41//1 42//1 43//1
f 44//2 47//2 46//2 45//2
f 40//3 44//3 45//3 41//3
f 41//4 45//4 46//4 42//4
f 42//5 46//5 47//5 43//5
f 44//6 40//6 43//6 47//6
f 48//1 49//1 50//1 51//1
f 52//2 55//2 54//2 53//2
f 48//3 52//3 53//3 49//3
f 49//4 53//4 54//4 50//4
f 50//5 54//5 55//5 51//5
f 52//6 48//6 51//6 55//6
f 56//26 57//26 58//26 59//26
f 60//27 63//27 62//27 61//27
f 56//28 60//28 61//28 57//28
f 57//4 61//4 62//4 58//4
f 58//29 62//29 63//29 59//29
f 60//6 56//6 59//6 63//6
f 64//30 65//30 66//30 67//30
f 68//31 71//31 70//31 69//31
f 64//32 68//32 69//32 65//32
f 65//4 69//4 70//4 66//4
f 66//33 70//33 71//33 67//33
f 68//6 64//6 67//6 71//6
f 72//1 73//1 152//1 74//1
f 75//2 153//2 77//2 76//2
f 72//3 75//3 76//3 73//3
f 73//4 76//4 77//4 152//4
f 152//5 77//5 153//5 74//5
f 75//6 72//6 74//6 153//6
f 78//1 79//1 155//1 154//1
f 80//2 156//2 157//2 81//2
f 78//3 80//3 81//3 79//3
f 79//4 81//4 157//4 155//4
f 80//6 78//6 154//6 156//6
f 82//1 83//1 159//1 158//1
f 84//2 160//2 86//2 85//2
f 82//3 84//3 85//3 83//3
f 83//4 85//4 86//4 159//4
f 159//5 86//5 160//5 158//5
f 84//6 82//6 158//6 160//6
f 89//34 91//34 92//34 90//34
f 91//35 93//35 94//35 92//35
f 93//36 95//36 96//36 94//36
f 95//37 97//37 98//37 96//37
f 97//38 99//38 100//38 98//38
f 99//39 101//39 102//39 100//39
f 101//40 103//40 104//40 102//40
f 103//41 105//41 106//41 104//41
f 105//42 107//42 108//42 106//42
f 107//43 109//43 110//43 108//43
f 114//44 116//44 117//44 115//44
f 116//45 118//45 119//45 117//45
f 118//46 89//46 90//46 119//46
f 120//1 123//1 122//1 121//1
f 124//2 125//2 126//2 127//2
f 120//5 121//5 125//5 124//5
f 121//47 122//47 126//47 125//47
f 122//3 123//3 127//3 126//3
f 124//6 127//6 123//6 120//6
f 128//1 131//1 130//1 129//1
f 132//2 133//2 134//2 135//2
f 128//5 129//5 133//5 132//5
f 129//4 130//4 134//4 133//4
f 130//3 131//3 135//3 134//3
f 132//6 135//6 131//6 128//6
f 136//48 139//48 138//48 137//48
f 140//49 141//49 142//49 143//49
f 136//50 137//50 141//50 140//50
f 137//4 138//4 142//4 141//4
f 138//51 139//51 143//51 142//51
f 140//6 143//6 139//6 136//6
f 144//52 147//52 146//52 145//52
f 148//53 149//53 150//53 151//53
f 144//54 145//54 149//54 148//54
f 145//4 146//4 150//4 149//4
f 146//55 147//55 151//55 150//55
f 148//6 151//6 147//6 144//6
f 154//5 155//5 157//5 156//5
